<svg xmlns="http://www.w3.org/2000/svg" viewBox="0 0 640 180" width="640" height="180">
  <!-- Escudo mini físico — borde opacity 0.50 -->
  <rect x="24" y="4" width="7" height="22" rx="1.5" fill="#0f2e1a"/>
  <rect x="41" y="4" width="7" height="22" rx="1.5" fill="#0f2e1a"/>
  <polygon points="31,4 38,4 48,26 41,26" fill="#b8860b"/>
  <rect x="27" y="24" width="21" height="3" rx="1.5" fill="#0f2e1a" opacity=".2"/>
  <path d="M36 28 L62 37 L62 96 Q62 128 36 138 Q10 128 10 96 L10 37 Z" fill="#0f2e1a"/>
  <path d="M36 33 L58 41 L58 95 Q58 122 36 131 Q14 122 14 95 L14 41 Z"
        fill="none" stroke="#b8860b" stroke-width="1.5" opacity="0.50"/>
  <path d="M14 102 Q36 114 58 102" fill="none" stroke="#b8860b" stroke-width="2.2" stroke-linecap="round"/>
  <ellipse cx="25" cy="89" rx="7" ry="9" fill="#f6f1e8" stroke="#b8860b" stroke-width="1.2"/>
  <ellipse cx="36" cy="85" rx="9" ry="11.5" fill="#b8860b" stroke="#0f2e1a" stroke-width="1.4"/>
  <ellipse cx="47" cy="89" rx="7" ry="9" fill="#f6f1e8" stroke="#b8860b" stroke-width="1.2"/>
  <!-- Wordmark -->
  <text x="82" y="66" font-family="Barlow Condensed, sans-serif" font-weight="900" font-size="52"
        fill="#0f2e1a" letter-spacing="3">NIDAL</text>
  <text x="82" y="92" font-family="Barlow Condensed, sans-serif" font-weight="600" font-size="20"
        fill="#b8860b" letter-spacing="6">TRINIDAD</text>
  <line x1="82" y1="112" x2="500" y2="112" stroke="#b8860b" stroke-width=".9" opacity=".45"/>
  <text x="82" y="130" font-family="Barlow Condensed, sans-serif" font-weight="400" font-size="16"
        fill="#5a5a5a" letter-spacing="2.5" font-style="italic">El huevo que se distingue</text>
  <!-- Heliconia -->
  <text x="82" y="155" font-family="Barlow Condensed, sans-serif" font-weight="600" font-size="11"
        fill="#b8860b" letter-spacing="4">HELICONIA · ANTIOQUIA · COLOMBIA</text>
</svg>