<svg xmlns="http://www.w3.org/2000/svg" viewBox="0 0 120 158" width="120" height="158">
  <rect x="43" y="2" width="10" height="26" rx="2" fill="#0f2e1a"/>
  <rect x="67" y="2" width="10" height="26" rx="2" fill="#0f2e1a"/>
  <polygon points="53,2 63,2 77,28 67,28" fill="#b8860b"/>
  <rect x="47" y="26" width="26" height="4" rx="2" fill="#0f2e1a" opacity=".2"/>
  <path d="M60 31 L100 45 L100 98 Q100 131 60 143 Q20 131 20 98 L20 45 Z" fill="#0f2e1a"/>
  <path d="M60 38 L94 50 L94 97 Q94 126 60 137 Q26 126 26 97 L26 50 Z"
        fill="none" stroke="#b8860b" stroke-width=".9" opacity=".30"/>
  <path d="M26 104 Q60 118 94 104" fill="none" stroke="#b8860b" stroke-width="2.8" stroke-linecap="round"/>
  <path d="M31 111 Q60 123 89 111" fill="none" stroke="#b8860b" stroke-width="1.4" stroke-linecap="round" opacity=".36"/>
  <ellipse cx="44" cy="91" rx="10" ry="13" fill="#f6f1e8" stroke="#b8860b" stroke-width="1.5"/>
  <ellipse cx="60" cy="87" rx="13" ry="17" fill="#b8860b" stroke="#0f2e1a" stroke-width="1.8"/>
  <ellipse cx="76" cy="91" rx="10" ry="13" fill="#f6f1e8" stroke="#b8860b" stroke-width="1.5"/>
</svg>