<svg xmlns="http://www.w3.org/2000/svg" viewBox="0 0 640 180" width="640" height="180">
  <!-- Escudo mini físico — borde opacity 0.50 -->
  <rect x="24" y="4" width="7" height="22" rx="1.5" fill="#0f2e1a"/>
  <rect x="41" y="4" width="7" height="22" rx="1.5" fill="#0f2e1a"/>
  <polygon points="31,4 38,4 48,26 41,26" fill="#b8860b"/>
  <rect x="27" y="24" width="21" height="3" rx="1.5" fill="#0f2e1a" opacity=".2"/>
  <path d="M36 28 L62 37 L62 96 Q62 128 36 138 Q10 128 10 96 L10 37 Z" fill="#0f2e1a"/>
  <path d="M36 33 L58 41 L58 95 Q58 122 36 131 Q14 122 14 95 L14 41 Z"
        fill="none" stroke="#b8860b" stroke-width="1.5" opacity="0.50"/>
  <path d="M14 102 Q36 114 58 102" fill="none" stroke="#b8860b" stroke-width="2.2" stroke-linecap="round"/>
  <ellipse cx="25" cy="89" rx="7" ry="9" fill="#f6f1e8" stroke="#b8860b" stroke-width="1.2"/>
  <ellipse cx="36" cy="85" rx="9" ry="11.5" fill="#b8860b" stroke="#0f2e1a" stroke-width="1.4"/>
  <ellipse cx="47" cy="89" rx="7" ry="9" fill="#f6f1e8" stroke="#b8860b" stroke-width="1.2"/>
  <!-- Wordmark -->
  <text x="82" y="66" font-family="Barlow Condensed, sans-serif" font-weight="900" font-size="52"
        fill="#0f2e1a" letter-spacing="3">NIDAL</text>
  <text x="82" y="92" font-family="Barlow Condensed, sans-serif" font-weight="600" font-size="20"
        fill="#b8860b" letter-spacing="6">TRINIDAD</text>
  <line x1="82" y1="112" x2="500" y2="112" stroke="#b8860b" stroke-width=".9" opacity=".45"/>
  <text x="82" y="130" font-family="Barlow Condensed, sans-serif" font-weight="400" font-size="16"
        fill="#5a5a5a" letter-spacing="2.5" font-style="italic">El huevo que se distingue</text>
  <!-- Heliconia -->
  <text x="82" y="155" font-family="Barlow Condensed, sans-serif" font-weight="600" font-size="11"
        fill="#b8860b" letter-spacing="4">HELICONIA · ANTIOQUIA · COLOMBIA</text>
</svg>
<svg xmlns="http://www.w3.org/2000/svg" viewBox="0 0 32 32" width="32" height="32">
  <path d="M16 2 L27 6 L27 22 Q27 30 16 32 Q5 30 5 22 L5 6 Z" fill="#0f2e1a"/>
  <ellipse cx="16" cy="21" rx="7" ry="9" fill="#b8860b"/>
</svg>
<svg xmlns="http://www.w3.org/2000/svg" viewBox="0 0 380 600" width="380" height="600">
  <!-- N remate heráldico -->
  <rect x="168" y="8" width="11" height="40" rx="2.5" fill="#0f2e1a"/>
  <rect x="201" y="8" width="11" height="40" rx="2.5" fill="#0f2e1a"/>
  <polygon points="179,8 192,8 212,48 199,48" fill="#b8860b"/>
  <rect x="172" y="46" width="36" height="5" rx="2.5" fill="#0f2e1a" opacity=".2"/>
  <!-- Escudo V5.1 extendido -->
  <path d="M190 54 L308 96 L308 294 Q308 404 190 440 Q72 404 72 294 L72 96 Z" fill="#0f2e1a"/>
  <path d="M190 66 L296 105 L296 292 Q296 382 190 416 Q84 382 84 292 L84 105 Z"
        fill="none" stroke="#b8860b" stroke-width="1" opacity="0.30"/>
  <!-- Arcos nido -->
  <path d="M98 306 Q190 354 282 306" fill="none" stroke="#b8860b" stroke-width="3.8" stroke-linecap="round"/>
  <path d="M112 317 Q190 360 268 317" fill="none" stroke="#b8860b" stroke-width="1.8" stroke-linecap="round" opacity=".36"/>
  <!-- Tres huevos -->
  <ellipse cx="155" cy="272" rx="21" ry="28" fill="#f6f1e8" stroke="#b8860b" stroke-width="2"/>
  <ellipse cx="190" cy="260" rx="26" ry="34" fill="#b8860b" stroke="#0f2e1a" stroke-width="2.5"/>
  <ellipse cx="225" cy="272" rx="21" ry="28" fill="#f6f1e8" stroke="#b8860b" stroke-width="2"/>
  <!-- Wordmark -->
  <text x="190" y="388" font-family="Barlow Condensed, sans-serif" font-weight="900" font-size="34"
        fill="#f6f1e8" text-anchor="middle" letter-spacing="4">NIDAL</text>
  <text x="190" y="408" font-family="Barlow Condensed, sans-serif" font-weight="600" font-size="13"
        fill="#b8860b" text-anchor="middle" letter-spacing="5">TRINIDAD</text>
  <!-- Tagline -->
  <line x1="112" y1="456" x2="268" y2="456" stroke="#b8860b" stroke-width=".9" opacity=".5"/>
  <text x="190" y="474" font-family="Barlow Condensed, sans-serif" font-weight="400" font-size="12"
        fill="#0f2e1a" text-anchor="middle" letter-spacing="2.5" font-style="italic">El huevo que se distingue</text>
  <line x1="112" y1="483" x2="268" y2="483" stroke="#b8860b" stroke-width=".9" opacity=".5"/>
</svg>
<svg xmlns="http://www.w3.org/2000/svg" viewBox="0 0 560 160" width="560" height="160">
  <!-- Escudo mini -->
  <rect x="24" y="4" width="7" height="22" rx="1.5" fill="#0f2e1a"/>
  <rect x="41" y="4" width="7" height="22" rx="1.5" fill="#0f2e1a"/>
  <polygon points="31,4 38,4 48,26 41,26" fill="#b8860b"/>
  <rect x="27" y="24" width="21" height="3" rx="1.5" fill="#0f2e1a" opacity=".2"/>
  <path d="M36 28 L62 37 L62 96 Q62 128 36 138 Q10 128 10 96 L10 37 Z" fill="#0f2e1a"/>
  <path d="M36 33 L58 41 L58 95 Q58 122 36 131 Q14 122 14 95 L14 41 Z"
        fill="none" stroke="#b8860b" stroke-width=".7" opacity=".30"/>
  <path d="M14 102 Q36 114 58 102" fill="none" stroke="#b8860b" stroke-width="2.2" stroke-linecap="round"/>
  <path d="M18 108 Q36 118 54 108" fill="none" stroke="#b8860b" stroke-width="1.1" stroke-linecap="round" opacity=".36"/>
  <ellipse cx="25" cy="89" rx="7" ry="9" fill="#f6f1e8" stroke="#b8860b" stroke-width="1.2"/>
  <ellipse cx="36" cy="85" rx="9" ry="11.5" fill="#b8860b" stroke="#0f2e1a" stroke-width="1.4"/>
  <ellipse cx="47" cy="89" rx="7" ry="9" fill="#f6f1e8" stroke="#b8860b" stroke-width="1.2"/>
  <!-- Wordmark -->
  <text x="82" y="62" font-family="Barlow Condensed, sans-serif" font-weight="900" font-size="46"
        fill="#0f2e1a" letter-spacing="3">NIDAL</text>
  <text x="82" y="85" font-family="Barlow Condensed, sans-serif" font-weight="600" font-size="18"
        fill="#b8860b" letter-spacing="6">TRINIDAD</text>
  <!-- Tagline -->
  <line x1="82" y1="104" x2="430" y2="104" stroke="#b8860b" stroke-width=".8" opacity=".45"/>
  <text x="82" y="120" font-family="Barlow Condensed, sans-serif" font-weight="400" font-size="14"
        fill="#5a5a5a" letter-spacing="2" font-style="italic">El huevo que se distingue</text>
</svg>
<svg xmlns="http://www.w3.org/2000/svg" viewBox="0 0 120 158" width="120" height="158">
  <rect x="43" y="2" width="10" height="26" rx="2" fill="#0f2e1a"/>
  <rect x="67" y="2" width="10" height="26" rx="2" fill="#0f2e1a"/>
  <polygon points="53,2 63,2 77,28 67,28" fill="#b8860b"/>
  <rect x="47" y="26" width="26" height="4" rx="2" fill="#0f2e1a" opacity=".2"/>
  <path d="M60 31 L100 45 L100 98 Q100 131 60 143 Q20 131 20 98 L20 45 Z" fill="#0f2e1a"/>
  <path d="M60 38 L94 50 L94 97 Q94 126 60 137 Q26 126 26 97 L26 50 Z"
        fill="none" stroke="#b8860b" stroke-width=".9" opacity=".30"/>
  <path d="M26 104 Q60 118 94 104" fill="none" stroke="#b8860b" stroke-width="2.8" stroke-linecap="round"/>
  <path d="M31 111 Q60 123 89 111" fill="none" stroke="#b8860b" stroke-width="1.4" stroke-linecap="round" opacity=".36"/>
  <ellipse cx="44" cy="91" rx="10" ry="13" fill="#f6f1e8" stroke="#b8860b" stroke-width="1.5"/>
  <ellipse cx="60" cy="87" rx="13" ry="17" fill="#b8860b" stroke="#0f2e1a" stroke-width="1.8"/>
  <ellipse cx="76" cy="91" rx="10" ry="13" fill="#f6f1e8" stroke="#b8860b" stroke-width="1.5"/>
</svg>
<svg xmlns="http://www.w3.org/2000/svg" viewBox="0 0 380 600" width="380" height="600">
  <rect x="168" y="8" width="11" height="40" rx="2.5" fill="#0f2e1a"/>
  <rect x="201" y="8" width="11" height="40" rx="2.5" fill="#0f2e1a"/>
  <polygon points="179,8 192,8 212,48 199,48" fill="#0f2e1a"/>
  <rect x="172" y="46" width="36" height="5" rx="2.5" fill="#0f2e1a" opacity=".3"/>
  <path d="M190 54 L308 96 L308 294 Q308 404 190 440 Q72 404 72 294 L72 96 Z"
        fill="none" stroke="#0f2e1a" stroke-width="3"/>
  <path d="M98 306 Q190 354 282 306" fill="none" stroke="#0f2e1a" stroke-width="3" stroke-linecap="round"/>
  <ellipse cx="155" cy="272" rx="21" ry="28" fill="none" stroke="#0f2e1a" stroke-width="2"/>
  <ellipse cx="190" cy="260" rx="26" ry="34" fill="#0f2e1a"/>
  <ellipse cx="225" cy="272" rx="21" ry="28" fill="none" stroke="#0f2e1a" stroke-width="2"/>
  <text x="190" y="388" font-family="Barlow Condensed, sans-serif" font-weight="900" font-size="34"
        fill="#0f2e1a" text-anchor="middle" letter-spacing="4">NIDAL</text>
  <text x="190" y="408" font-family="Barlow Condensed, sans-serif" font-weight="600" font-size="13"
        fill="#0f2e1a" text-anchor="middle" letter-spacing="5">TRINIDAD</text>
  <line x1="112" y1="456" x2="268" y2="456" stroke="#0f2e1a" stroke-width=".9" opacity=".5"/>
  <text x="190" y="474" font-family="Barlow Condensed, sans-serif" font-weight="400" font-size="12"
        fill="#0f2e1a" text-anchor="middle" letter-spacing="2.5" font-style="italic">El huevo que se distingue</text>
  <line x1="112" y1="483" x2="268" y2="483" stroke="#0f2e1a" stroke-width=".9" opacity=".5"/>
</svg>
<svg xmlns="http://www.w3.org/2000/svg" viewBox="0 0 560 160" width="560" height="160">
  <!-- N remate heraldico -->
  <rect x="24" y="4" width="7" height="22" rx="1.5" fill="#f6f1e8"/>
  <rect x="41" y="4" width="7" height="22" rx="1.5" fill="#f6f1e8"/>
  <polygon points="31,4 38,4 48,26 41,26" fill="#b8860b"/>
  <rect x="27" y="24" width="21" height="3" rx="1.5" fill="#f6f1e8" opacity=".18"/>
  <!-- Shield -->
  <path d="M36 28 L62 37 L62 96 Q62 128 36 138 Q10 128 10 96 L10 37 Z" fill="#0f2e1a"/>
  <path d="M36 33 L58 41 L58 95 Q58 122 36 131 Q14 122 14 95 L14 41 Z"
        fill="none" stroke="#b8860b" stroke-width=".7" opacity=".40"/>
  <!-- Nest arcs -->
  <path d="M14 102 Q36 114 58 102" fill="none" stroke="#b8860b" stroke-width="2.2" stroke-linecap="round"/>
  <path d="M18 108 Q36 118 54 108" fill="none" stroke="#b8860b" stroke-width="1.1" stroke-linecap="round" opacity=".36"/>
  <!-- Eggs -->
  <ellipse cx="25" cy="89" rx="7" ry="9" fill="#f6f1e8" stroke="#b8860b" stroke-width="1.2"/>
  <ellipse cx="36" cy="85" rx="9" ry="11.5" fill="#b8860b" stroke="#0f2e1a" stroke-width="1.4"/>
  <ellipse cx="47" cy="89" rx="7" ry="9" fill="#f6f1e8" stroke="#b8860b" stroke-width="1.2"/>
  <!-- Wordmark - cream text for dark backgrounds -->
  <text x="82" y="62" font-family="Barlow Condensed, sans-serif" font-weight="900" font-size="46"
        fill="#f6f1e8" letter-spacing="3">NIDAL</text>
  <text x="82" y="85" font-family="Barlow Condensed, sans-serif" font-weight="600" font-size="18"
        fill="#b8860b" letter-spacing="6">TRINIDAD</text>
  <!-- Tagline -->
  <line x1="82" y1="104" x2="430" y2="104" stroke="#b8860b" stroke-width=".8" opacity=".40"/>
  <text x="82" y="120" font-family="Barlow Condensed, sans-serif" font-weight="400" font-size="14"
        fill="rgba(246,241,232,0.55)" letter-spacing="2" font-style="italic">El huevo que se distingue</text>
</svg>

<svg xmlns="http://www.w3.org/2000/svg" viewBox="0 0 380 600" width="380" height="600">
  <rect width="380" height="600" fill="#0f2e1a"/>
  <rect x="168" y="8" width="11" height="40" rx="2.5" fill="#f6f1e8"/>
  <rect x="201" y="8" width="11" height="40" rx="2.5" fill="#f6f1e8"/>
  <polygon points="179,8 192,8 212,48 199,48" fill="#b8860b"/>
  <rect x="172" y="46" width="36" height="5" rx="2.5" fill="#f6f1e8" opacity=".18"/>
  <path d="M190 54 L308 96 L308 294 Q308 404 190 440 Q72 404 72 294 L72 96 Z"
        fill="none" stroke="#b8860b" stroke-width="2.5"/>
  <path d="M190 66 L296 105 L296 292 Q296 382 190 416 Q84 382 84 292 L84 105 Z"
        fill="none" stroke="#b8860b" stroke-width="1" opacity="0.40"/>
  <path d="M98 306 Q190 354 282 306" fill="none" stroke="#b8860b" stroke-width="3.8" stroke-linecap="round"/>
  <path d="M112 317 Q190 360 268 317" fill="none" stroke="#b8860b" stroke-width="1.8" stroke-linecap="round" opacity=".36"/>
  <ellipse cx="155" cy="272" rx="21" ry="28" fill="#f6f1e8"/>
  <ellipse cx="190" cy="260" rx="26" ry="34" fill="#b8860b"/>
  <ellipse cx="225" cy="272" rx="21" ry="28" fill="#f6f1e8"/>
  <text x="190" y="388" font-family="Barlow Condensed, sans-serif" font-weight="900" font-size="34"
        fill="#f6f1e8" text-anchor="middle" letter-spacing="4">NIDAL</text>
  <text x="190" y="408" font-family="Barlow Condensed, sans-serif" font-weight="600" font-size="13"
        fill="#b8860b" text-anchor="middle" letter-spacing="5">TRINIDAD</text>
  <line x1="112" y1="456" x2="268" y2="456" stroke="#b8860b" stroke-width=".9" opacity=".5"/>
  <text x="190" y="474" font-family="Barlow Condensed, sans-serif" font-weight="400" font-size="12"
        fill="#f6f1e8" text-anchor="middle" letter-spacing="2.5" font-style="italic">El huevo que se distingue</text>
  <line x1="112" y1="483" x2="268" y2="483" stroke="#b8860b" stroke-width=".9" opacity=".5"/>
</svg>
