<svg xmlns="http://www.w3.org/2000/svg" viewBox="0 0 380 600" width="380" height="600">
  <rect x="168" y="8" width="11" height="40" rx="2.5" fill="#0f2e1a"/>
  <rect x="201" y="8" width="11" height="40" rx="2.5" fill="#0f2e1a"/>
  <polygon points="179,8 192,8 212,48 199,48" fill="#0f2e1a"/>
  <rect x="172" y="46" width="36" height="5" rx="2.5" fill="#0f2e1a" opacity=".3"/>
  <path d="M190 54 L308 96 L308 294 Q308 404 190 440 Q72 404 72 294 L72 96 Z"
        fill="none" stroke="#0f2e1a" stroke-width="3"/>
  <path d="M98 306 Q190 354 282 306" fill="none" stroke="#0f2e1a" stroke-width="3" stroke-linecap="round"/>
  <ellipse cx="155" cy="272" rx="21" ry="28" fill="none" stroke="#0f2e1a" stroke-width="2"/>
  <ellipse cx="190" cy="260" rx="26" ry="34" fill="#0f2e1a"/>
  <ellipse cx="225" cy="272" rx="21" ry="28" fill="none" stroke="#0f2e1a" stroke-width="2"/>
  <text x="190" y="388" font-family="Barlow Condensed, sans-serif" font-weight="900" font-size="34"
        fill="#0f2e1a" text-anchor="middle" letter-spacing="4">NIDAL</text>
  <text x="190" y="408" font-family="Barlow Condensed, sans-serif" font-weight="600" font-size="13"
        fill="#0f2e1a" text-anchor="middle" letter-spacing="5">TRINIDAD</text>
  <line x1="112" y1="456" x2="268" y2="456" stroke="#0f2e1a" stroke-width=".9" opacity=".5"/>
  <text x="190" y="474" font-family="Barlow Condensed, sans-serif" font-weight="400" font-size="12"
        fill="#0f2e1a" text-anchor="middle" letter-spacing="2.5" font-style="italic">El huevo que se distingue</text>
  <line x1="112" y1="483" x2="268" y2="483" stroke="#0f2e1a" stroke-width=".9" opacity=".5"/>
</svg>
